<svg width="298" height="84" viewBox="0 0 298 84" fill="none" xmlns="http://www.w3.org/2000/svg">
<g clip-path="url(#clip0_474_246)">
<path d="M49.8671 0V17.8143H29V0H21V43H29V24.9065H49.8671V43H57.8671V0H49.8671Z" fill="white"/>
<path d="M103.35 25.074C103.35 36.5221 98.93 43 84.944 43C70.9579 43 66.4824 36.5221 66.4824 25.074V0H74.6503V24.739C74.6503 29.5974 75.6572 36.0753 84.888 36.0753C94.1188 36.0753 95.2377 29.5974 95.2377 24.739V0H103.294V25.074H103.35Z" fill="white"/>
<path d="M133.112 0C142.958 0 146.147 1.8987 146.147 1.8987V9.38182C145.084 8.99091 144.021 8.54416 142.958 8.20909C137.476 6.53377 130.762 6.14286 125.448 8.65584C123.49 9.66104 121.923 11.1688 120.86 13.0675C119.35 15.8039 118.902 19.3221 119.014 22.3935C119.014 24.8506 119.629 27.3078 120.748 29.5416C121.755 31.4961 123.266 33.1156 125.112 34.2883C128.58 36.4104 132.888 36.4104 136.804 35.8519C137.252 35.7961 137.699 35.6844 138.147 35.5727V23.1195H146.203V40.9338C139.21 44.0052 125.392 43.5026 120.189 40.3195C111.014 34.7909 110.399 26.4701 110.734 18.4286C111.182 6.25455 119.35 0 133.112 0Z" fill="white"/>
<path d="M220.273 0V31.0494L198.175 0H190.175V43H198.175V12.2857L220.273 43H228.273V0H220.273Z" fill="white"/>
<path d="M182.678 7.25974V0H154.091H153.42V43H154.091H161.42H182.678V36.1312H161.42V24.7948H181.56V17.926H161.42V7.25974H182.678Z" fill="white"/>
<path d="M258.539 10.6104L266.762 0H277L260.944 20.4948L258.539 10.6104Z" fill="white"/>
<path d="M277 43L243.378 0H233.196L249.979 21.6675L233.196 43H243.378L255.07 28.1455L266.762 43H277Z" fill="white"/>
</g>
<path d="M2.28 75V61H3.76V73.72H11.6V75H2.28ZM19.8373 75V72.68L19.7773 72.3V68.42C19.7773 67.5267 19.524 66.84 19.0173 66.36C18.524 65.88 17.784 65.64 16.7973 65.64C16.1173 65.64 15.4707 65.7533 14.8573 65.98C14.244 66.2067 13.724 66.5067 13.2973 66.88L12.6573 65.82C13.1907 65.3667 13.8307 65.02 14.5773 64.78C15.324 64.5267 16.1107 64.4 16.9373 64.4C18.2973 64.4 19.344 64.74 20.0773 65.42C20.824 66.0867 21.1973 67.1067 21.1973 68.48V75H19.8373ZM16.2173 75.1C15.4307 75.1 14.744 74.9733 14.1573 74.72C13.584 74.4533 13.144 74.0933 12.8373 73.64C12.5307 73.1733 12.3773 72.64 12.3773 72.04C12.3773 71.4933 12.504 71 12.7573 70.56C13.024 70.1067 13.4507 69.7467 14.0373 69.48C14.6373 69.2 15.4373 69.06 16.4373 69.06H20.0573V70.12H16.4773C15.464 70.12 14.7573 70.3 14.3573 70.66C13.9707 71.02 13.7773 71.4667 13.7773 72C13.7773 72.6 14.0107 73.08 14.4773 73.44C14.944 73.8 15.5973 73.98 16.4373 73.98C17.2373 73.98 17.924 73.8 18.4973 73.44C19.084 73.0667 19.5107 72.5333 19.7773 71.84L20.0973 72.82C19.8307 73.5133 19.364 74.0667 18.6973 74.48C18.044 74.8933 17.2173 75.1 16.2173 75.1ZM29.9742 75.1C29.0542 75.1 28.2276 74.8933 27.4942 74.48C26.7609 74.0533 26.1809 73.44 25.7542 72.64C25.3276 71.84 25.1142 70.8733 25.1142 69.74C25.1142 68.5933 25.3276 67.6267 25.7542 66.84C26.1942 66.04 26.7809 65.4333 27.5142 65.02C28.2476 64.6067 29.0676 64.4 29.9742 64.4C30.9742 64.4 31.8676 64.6267 32.6542 65.08C33.4542 65.52 34.0809 66.14 34.5342 66.94C34.9876 67.74 35.2142 68.6733 35.2142 69.74C35.2142 70.7933 34.9876 71.7267 34.5342 72.54C34.0809 73.34 33.4542 73.9667 32.6542 74.42C31.8676 74.8733 30.9742 75.1 29.9742 75.1ZM24.5542 75V60.16H25.9742V67.6L25.7742 69.72L25.9142 71.84V75H24.5542ZM29.8742 73.84C30.6209 73.84 31.2876 73.6733 31.8742 73.34C32.4609 72.9933 32.9276 72.5133 33.2742 71.9C33.6209 71.2733 33.7942 70.5533 33.7942 69.74C33.7942 68.9133 33.6209 68.1933 33.2742 67.58C32.9276 66.9667 32.4609 66.4933 31.8742 66.16C31.2876 65.8133 30.6209 65.64 29.8742 65.64C29.1276 65.64 28.4542 65.8133 27.8542 66.16C27.2676 66.4933 26.8009 66.9667 26.4542 67.58C26.1209 68.1933 25.9542 68.9133 25.9542 69.74C25.9542 70.5533 26.1209 71.2733 26.4542 71.9C26.8009 72.5133 27.2676 72.9933 27.8542 73.34C28.4542 73.6733 29.1276 73.84 29.8742 73.84ZM41.8889 75.1C40.8756 75.1 39.9622 74.8733 39.1489 74.42C38.3489 73.9533 37.7156 73.32 37.2489 72.52C36.7822 71.7067 36.5489 70.78 36.5489 69.74C36.5489 68.6867 36.7822 67.76 37.2489 66.96C37.7156 66.16 38.3489 65.5333 39.1489 65.08C39.9489 64.6267 40.8622 64.4 41.8889 64.4C42.9289 64.4 43.8489 64.6267 44.6489 65.08C45.4622 65.5333 46.0956 66.16 46.5489 66.96C47.0156 67.76 47.2489 68.6867 47.2489 69.74C47.2489 70.78 47.0156 71.7067 46.5489 72.52C46.0956 73.32 45.4622 73.9533 44.6489 74.42C43.8356 74.8733 42.9156 75.1 41.8889 75.1ZM41.8889 73.84C42.6489 73.84 43.3222 73.6733 43.9089 73.34C44.4956 72.9933 44.9556 72.5133 45.2889 71.9C45.6356 71.2733 45.8089 70.5533 45.8089 69.74C45.8089 68.9133 45.6356 68.1933 45.2889 67.58C44.9556 66.9667 44.4956 66.4933 43.9089 66.16C43.3222 65.8133 42.6556 65.64 41.9089 65.64C41.1622 65.64 40.4956 65.8133 39.9089 66.16C39.3222 66.4933 38.8556 66.9667 38.5089 67.58C38.1622 68.1933 37.9889 68.9133 37.9889 69.74C37.9889 70.5533 38.1622 71.2733 38.5089 71.9C38.8556 72.5133 39.3222 72.9933 39.9089 73.34C40.4956 73.6733 41.1556 73.84 41.8889 73.84ZM49.648 75V64.5H51.008V67.36L50.868 66.86C51.1613 66.06 51.6546 65.4533 52.348 65.04C53.0413 64.6133 53.9013 64.4 54.928 64.4V65.78C54.8746 65.78 54.8213 65.78 54.768 65.78C54.7146 65.7667 54.6613 65.76 54.608 65.76C53.5013 65.76 52.6346 66.1 52.008 66.78C51.3813 67.4467 51.068 68.4 51.068 69.64V75H49.648ZM62.8178 75V72.68L62.7578 72.3V68.42C62.7578 67.5267 62.5045 66.84 61.9978 66.36C61.5045 65.88 60.7645 65.64 59.7778 65.64C59.0978 65.64 58.4511 65.7533 57.8378 65.98C57.2245 66.2067 56.7045 66.5067 56.2778 66.88L55.6378 65.82C56.1711 65.3667 56.8111 65.02 57.5578 64.78C58.3045 64.5267 59.0911 64.4 59.9178 64.4C61.2778 64.4 62.3245 64.74 63.0578 65.42C63.8045 66.0867 64.1778 67.1067 64.1778 68.48V75H62.8178ZM59.1978 75.1C58.4111 75.1 57.7245 74.9733 57.1378 74.72C56.5645 74.4533 56.1245 74.0933 55.8178 73.64C55.5111 73.1733 55.3578 72.64 55.3578 72.04C55.3578 71.4933 55.4845 71 55.7378 70.56C56.0045 70.1067 56.4311 69.7467 57.0178 69.48C57.6178 69.2 58.4178 69.06 59.4178 69.06H63.0378V70.12H59.4578C58.4445 70.12 57.7378 70.3 57.3378 70.66C56.9511 71.02 56.7578 71.4667 56.7578 72C56.7578 72.6 56.9911 73.08 57.4578 73.44C57.9245 73.8 58.5778 73.98 59.4178 73.98C60.2178 73.98 60.9045 73.8 61.4778 73.44C62.0645 73.0667 62.4911 72.5333 62.7578 71.84L63.0778 72.82C62.8111 73.5133 62.3445 74.0667 61.6778 74.48C61.0245 74.8933 60.1978 75.1 59.1978 75.1ZM70.8547 75.1C69.868 75.1 69.108 74.8333 68.5747 74.3C68.0414 73.7667 67.7747 73.0133 67.7747 72.04V62.18H69.1947V71.96C69.1947 72.5733 69.348 73.0467 69.6547 73.38C69.9747 73.7133 70.428 73.88 71.0147 73.88C71.6414 73.88 72.1614 73.7 72.5747 73.34L73.0747 74.36C72.7947 74.6133 72.4547 74.8 72.0547 74.92C71.668 75.04 71.268 75.1 70.8547 75.1ZM65.8947 65.68V64.5H72.3947V65.68H65.8947ZM79.0686 75.1C78.0553 75.1 77.1419 74.8733 76.3286 74.42C75.5286 73.9533 74.8953 73.32 74.4286 72.52C73.9619 71.7067 73.7286 70.78 73.7286 69.74C73.7286 68.6867 73.9619 67.76 74.4286 66.96C74.8953 66.16 75.5286 65.5333 76.3286 65.08C77.1286 64.6267 78.0419 64.4 79.0686 64.4C80.1086 64.4 81.0286 64.6267 81.8286 65.08C82.6419 65.5333 83.2753 66.16 83.7286 66.96C84.1953 67.76 84.4286 68.6867 84.4286 69.74C84.4286 70.78 84.1953 71.7067 83.7286 72.52C83.2753 73.32 82.6419 73.9533 81.8286 74.42C81.0153 74.8733 80.0953 75.1 79.0686 75.1ZM79.0686 73.84C79.8286 73.84 80.5019 73.6733 81.0886 73.34C81.6753 72.9933 82.1353 72.5133 82.4686 71.9C82.8153 71.2733 82.9886 70.5533 82.9886 69.74C82.9886 68.9133 82.8153 68.1933 82.4686 67.58C82.1353 66.9667 81.6753 66.4933 81.0886 66.16C80.5019 65.8133 79.8353 65.64 79.0886 65.64C78.3419 65.64 77.6753 65.8133 77.0886 66.16C76.5019 66.4933 76.0353 66.9667 75.6886 67.58C75.3419 68.1933 75.1686 68.9133 75.1686 69.74C75.1686 70.5533 75.3419 71.2733 75.6886 71.9C76.0353 72.5133 76.5019 72.9933 77.0886 73.34C77.6753 73.6733 78.3353 73.84 79.0686 73.84ZM86.8277 75V64.5H88.1877V67.36L88.0477 66.86C88.341 66.06 88.8343 65.4533 89.5277 65.04C90.221 64.6133 91.081 64.4 92.1077 64.4V65.78C92.0543 65.78 92.001 65.78 91.9477 65.78C91.8943 65.7667 91.841 65.76 91.7877 65.76C90.681 65.76 89.8143 66.1 89.1877 66.78C88.561 67.4467 88.2477 68.4 88.2477 69.64V75H86.8277ZM94.728 78.98C94.2346 78.98 93.7613 78.9 93.308 78.74C92.868 78.58 92.488 78.34 92.168 78.02L92.828 76.96C93.0946 77.2133 93.3813 77.4067 93.688 77.54C94.008 77.6867 94.3613 77.76 94.748 77.76C95.2146 77.76 95.6146 77.6267 95.948 77.36C96.2946 77.1067 96.6213 76.6533 96.928 76L97.608 74.46L97.768 74.24L102.088 64.5H103.488L98.228 76.26C97.9346 76.94 97.608 77.48 97.248 77.88C96.9013 78.28 96.5213 78.56 96.108 78.72C95.6946 78.8933 95.2346 78.98 94.728 78.98ZM97.528 75.3L92.688 64.5H94.168L98.448 74.14L97.528 75.3ZM110.022 75V61H111.502V75H110.022ZM120.617 64.4C121.471 64.4 122.217 64.5667 122.857 64.9C123.511 65.22 124.017 65.7133 124.377 66.38C124.751 67.0467 124.937 67.8867 124.937 68.9V75H123.517V69.04C123.517 67.9333 123.237 67.1 122.677 66.54C122.131 65.9667 121.357 65.68 120.357 65.68C119.611 65.68 118.957 65.8333 118.397 66.14C117.851 66.4333 117.424 66.8667 117.117 67.44C116.824 68 116.677 68.68 116.677 69.48V75H115.257V64.5H116.617V67.38L116.397 66.84C116.731 66.08 117.264 65.4867 117.997 65.06C118.731 64.62 119.604 64.4 120.617 64.4ZM128.513 75V63.18C128.513 62.2467 128.786 61.4933 129.333 60.92C129.88 60.3467 130.666 60.06 131.693 60.06C132.093 60.06 132.48 60.1133 132.853 60.22C133.226 60.3267 133.54 60.4933 133.793 60.72L133.313 61.78C133.113 61.6067 132.88 61.48 132.613 61.4C132.346 61.3067 132.06 61.26 131.753 61.26C131.153 61.26 130.693 61.4267 130.373 61.76C130.053 62.0933 129.893 62.5867 129.893 63.24V64.84L129.933 65.5V75H128.513ZM126.633 65.68V64.5H133.133V65.68H126.633ZM138.655 75.1C137.641 75.1 136.728 74.8733 135.915 74.42C135.115 73.9533 134.481 73.32 134.015 72.52C133.548 71.7067 133.315 70.78 133.315 69.74C133.315 68.6867 133.548 67.76 134.015 66.96C134.481 66.16 135.115 65.5333 135.915 65.08C136.715 64.6267 137.628 64.4 138.655 64.4C139.695 64.4 140.615 64.6267 141.415 65.08C142.228 65.5333 142.861 66.16 143.315 66.96C143.781 67.76 144.015 68.6867 144.015 69.74C144.015 70.78 143.781 71.7067 143.315 72.52C142.861 73.32 142.228 73.9533 141.415 74.42C140.601 74.8733 139.681 75.1 138.655 75.1ZM138.655 73.84C139.415 73.84 140.088 73.6733 140.675 73.34C141.261 72.9933 141.721 72.5133 142.055 71.9C142.401 71.2733 142.575 70.5533 142.575 69.74C142.575 68.9133 142.401 68.1933 142.055 67.58C141.721 66.9667 141.261 66.4933 140.675 66.16C140.088 65.8133 139.421 65.64 138.675 65.64C137.928 65.64 137.261 65.8133 136.675 66.16C136.088 66.4933 135.621 66.9667 135.275 67.58C134.928 68.1933 134.755 68.9133 134.755 69.74C134.755 70.5533 134.928 71.2733 135.275 71.9C135.621 72.5133 136.088 72.9933 136.675 73.34C137.261 73.6733 137.921 73.84 138.655 73.84ZM146.414 75V64.5H147.774V67.36L147.634 66.86C147.927 66.06 148.42 65.4533 149.114 65.04C149.807 64.6133 150.667 64.4 151.694 64.4V65.78C151.64 65.78 151.587 65.78 151.534 65.78C151.48 65.7667 151.427 65.76 151.374 65.76C150.267 65.76 149.4 66.1 148.774 66.78C148.147 67.4467 147.834 68.4 147.834 69.64V75H146.414ZM166.905 64.4C167.758 64.4 168.498 64.5667 169.125 64.9C169.765 65.22 170.258 65.7133 170.605 66.38C170.965 67.0467 171.145 67.8867 171.145 68.9V75H169.725V69.04C169.725 67.9333 169.458 67.1 168.925 66.54C168.405 65.9667 167.665 65.68 166.705 65.68C165.985 65.68 165.358 65.8333 164.825 66.14C164.305 66.4333 163.898 66.8667 163.605 67.44C163.325 68 163.185 68.68 163.185 69.48V75H161.765V69.04C161.765 67.9333 161.498 67.1 160.965 66.54C160.431 65.9667 159.685 65.68 158.725 65.68C158.018 65.68 157.398 65.8333 156.865 66.14C156.331 66.4333 155.918 66.8667 155.625 67.44C155.345 68 155.205 68.68 155.205 69.48V75H153.785V64.5H155.145V67.34L154.925 66.84C155.245 66.08 155.758 65.4867 156.465 65.06C157.185 64.62 158.031 64.4 159.005 64.4C160.031 64.4 160.905 64.66 161.625 65.18C162.345 65.6867 162.811 66.4533 163.025 67.48L162.465 67.26C162.771 66.4067 163.311 65.72 164.085 65.2C164.871 64.6667 165.811 64.4 166.905 64.4ZM181.076 75V72.68L181.016 72.3V68.42C181.016 67.5267 180.762 66.84 180.256 66.36C179.762 65.88 179.022 65.64 178.036 65.64C177.356 65.64 176.709 65.7533 176.096 65.98C175.482 66.2067 174.962 66.5067 174.536 66.88L173.896 65.82C174.429 65.3667 175.069 65.02 175.816 64.78C176.562 64.5267 177.349 64.4 178.176 64.4C179.536 64.4 180.582 64.74 181.316 65.42C182.062 66.0867 182.436 67.1067 182.436 68.48V75H181.076ZM177.456 75.1C176.669 75.1 175.982 74.9733 175.396 74.72C174.822 74.4533 174.382 74.0933 174.076 73.64C173.769 73.1733 173.616 72.64 173.616 72.04C173.616 71.4933 173.742 71 173.996 70.56C174.262 70.1067 174.689 69.7467 175.276 69.48C175.876 69.2 176.676 69.06 177.676 69.06H181.296V70.12H177.716C176.702 70.12 175.996 70.3 175.596 70.66C175.209 71.02 175.016 71.4667 175.016 72C175.016 72.6 175.249 73.08 175.716 73.44C176.182 73.8 176.836 73.98 177.676 73.98C178.476 73.98 179.162 73.8 179.736 73.44C180.322 73.0667 180.749 72.5333 181.016 71.84L181.336 72.82C181.069 73.5133 180.602 74.0667 179.936 74.48C179.282 74.8933 178.456 75.1 177.456 75.1ZM189.113 75.1C188.126 75.1 187.366 74.8333 186.833 74.3C186.299 73.7667 186.033 73.0133 186.033 72.04V62.18H187.453V71.96C187.453 72.5733 187.606 73.0467 187.913 73.38C188.233 73.7133 188.686 73.88 189.273 73.88C189.899 73.88 190.419 73.7 190.833 73.34L191.333 74.36C191.053 74.6133 190.713 74.8 190.313 74.92C189.926 75.04 189.526 75.1 189.113 75.1ZM184.153 65.68V64.5H190.653V65.68H184.153ZM193.418 75V64.5H194.838V75H193.418ZM194.138 62.18C193.844 62.18 193.598 62.08 193.398 61.88C193.198 61.68 193.098 61.44 193.098 61.16C193.098 60.88 193.198 60.6467 193.398 60.46C193.598 60.26 193.844 60.16 194.138 60.16C194.431 60.16 194.678 60.2533 194.878 60.44C195.078 60.6267 195.178 60.86 195.178 61.14C195.178 61.4333 195.078 61.68 194.878 61.88C194.691 62.08 194.444 62.18 194.138 62.18ZM202.569 75.1C201.555 75.1 200.642 74.8733 199.829 74.42C199.029 73.9533 198.395 73.32 197.929 72.52C197.462 71.7067 197.229 70.78 197.229 69.74C197.229 68.6867 197.462 67.76 197.929 66.96C198.395 66.16 199.029 65.5333 199.829 65.08C200.629 64.6267 201.542 64.4 202.569 64.4C203.609 64.4 204.529 64.6267 205.329 65.08C206.142 65.5333 206.775 66.16 207.229 66.96C207.695 67.76 207.929 68.6867 207.929 69.74C207.929 70.78 207.695 71.7067 207.229 72.52C206.775 73.32 206.142 73.9533 205.329 74.42C204.515 74.8733 203.595 75.1 202.569 75.1ZM202.569 73.84C203.329 73.84 204.002 73.6733 204.589 73.34C205.175 72.9933 205.635 72.5133 205.969 71.9C206.315 71.2733 206.489 70.5533 206.489 69.74C206.489 68.9133 206.315 68.1933 205.969 67.58C205.635 66.9667 205.175 66.4933 204.589 66.16C204.002 65.8133 203.335 65.64 202.589 65.64C201.842 65.64 201.175 65.8133 200.589 66.16C200.002 66.4933 199.535 66.9667 199.189 67.58C198.842 68.1933 198.669 68.9133 198.669 69.74C198.669 70.5533 198.842 71.2733 199.189 71.9C199.535 72.5133 200.002 72.9933 200.589 73.34C201.175 73.6733 201.835 73.84 202.569 73.84ZM215.688 64.4C216.541 64.4 217.288 64.5667 217.928 64.9C218.581 65.22 219.088 65.7133 219.448 66.38C219.821 67.0467 220.008 67.8867 220.008 68.9V75H218.588V69.04C218.588 67.9333 218.308 67.1 217.748 66.54C217.201 65.9667 216.428 65.68 215.428 65.68C214.681 65.68 214.028 65.8333 213.468 66.14C212.921 66.4333 212.494 66.8667 212.188 67.44C211.894 68 211.748 68.68 211.748 69.48V75H210.328V64.5H211.688V67.38L211.468 66.84C211.801 66.08 212.334 65.4867 213.068 65.06C213.801 64.62 214.674 64.4 215.688 64.4ZM232.238 75.12C231.198 75.12 230.198 74.9533 229.238 74.62C228.291 74.2733 227.558 73.8333 227.038 73.3L227.618 72.16C228.111 72.64 228.771 73.0467 229.598 73.38C230.438 73.7 231.318 73.86 232.238 73.86C233.118 73.86 233.831 73.7533 234.378 73.54C234.938 73.3133 235.344 73.0133 235.598 72.64C235.864 72.2667 235.998 71.8533 235.998 71.4C235.998 70.8533 235.838 70.4133 235.518 70.08C235.211 69.7467 234.804 69.4867 234.298 69.3C233.791 69.1 233.231 68.9267 232.618 68.78C232.004 68.6333 231.391 68.48 230.778 68.32C230.164 68.1467 229.598 67.92 229.078 67.64C228.571 67.36 228.158 66.9933 227.838 66.54C227.531 66.0733 227.378 65.4667 227.378 64.72C227.378 64.0267 227.558 63.3933 227.918 62.82C228.291 62.2333 228.858 61.7667 229.618 61.42C230.378 61.06 231.351 60.88 232.538 60.88C233.324 60.88 234.104 60.9933 234.878 61.22C235.651 61.4333 236.318 61.7333 236.878 62.12L236.378 63.3C235.778 62.9 235.138 62.6067 234.458 62.42C233.791 62.2333 233.144 62.14 232.518 62.14C231.678 62.14 230.984 62.2533 230.438 62.48C229.891 62.7067 229.484 63.0133 229.218 63.4C228.964 63.7733 228.838 64.2 228.838 64.68C228.838 65.2267 228.991 65.6667 229.298 66C229.618 66.3333 230.031 66.5933 230.538 66.78C231.058 66.9667 231.624 67.1333 232.238 67.28C232.851 67.4267 233.458 67.5867 234.058 67.76C234.671 67.9333 235.231 68.16 235.738 68.44C236.258 68.7067 236.671 69.0667 236.978 69.52C237.298 69.9733 237.458 70.5667 237.458 71.3C237.458 71.98 237.271 72.6133 236.898 73.2C236.524 73.7733 235.951 74.24 235.178 74.6C234.418 74.9467 233.438 75.12 232.238 75.12ZM239.767 78.98C239.274 78.98 238.8 78.9 238.347 78.74C237.907 78.58 237.527 78.34 237.207 78.02L237.867 76.96C238.134 77.2133 238.42 77.4067 238.727 77.54C239.047 77.6867 239.4 77.76 239.787 77.76C240.254 77.76 240.654 77.6267 240.987 77.36C241.334 77.1067 241.66 76.6533 241.967 76L242.647 74.46L242.807 74.24L247.127 64.5H248.527L243.267 76.26C242.974 76.94 242.647 77.48 242.287 77.88C241.94 78.28 241.56 78.56 241.147 78.72C240.734 78.8933 240.274 78.98 239.767 78.98ZM242.567 75.3L237.727 64.5H239.207L243.487 74.14L242.567 75.3ZM252.73 75.1C251.863 75.1 251.043 74.98 250.27 74.74C249.496 74.4867 248.89 74.1733 248.45 73.8L249.09 72.68C249.516 73 250.063 73.28 250.73 73.52C251.396 73.7467 252.096 73.86 252.83 73.86C253.83 73.86 254.55 73.7067 254.99 73.4C255.43 73.08 255.65 72.66 255.65 72.14C255.65 71.7533 255.523 71.4533 255.27 71.24C255.03 71.0133 254.71 70.8467 254.31 70.74C253.91 70.62 253.463 70.52 252.97 70.44C252.476 70.36 251.983 70.2667 251.49 70.16C251.01 70.0533 250.57 69.9 250.17 69.7C249.77 69.4867 249.443 69.2 249.19 68.84C248.95 68.48 248.83 68 248.83 67.4C248.83 66.8267 248.99 66.3133 249.31 65.86C249.63 65.4067 250.096 65.0533 250.71 64.8C251.336 64.5333 252.096 64.4 252.99 64.4C253.67 64.4 254.35 64.4933 255.03 64.68C255.71 64.8533 256.27 65.0867 256.71 65.38L256.09 66.52C255.623 66.2 255.123 65.9733 254.59 65.84C254.056 65.6933 253.523 65.62 252.99 65.62C252.043 65.62 251.343 65.7867 250.89 66.12C250.45 66.44 250.23 66.8533 250.23 67.36C250.23 67.76 250.35 68.0733 250.59 68.3C250.843 68.5267 251.17 68.7067 251.57 68.84C251.983 68.96 252.43 69.06 252.91 69.14C253.403 69.22 253.89 69.32 254.37 69.44C254.863 69.5467 255.31 69.7 255.71 69.9C256.123 70.0867 256.45 70.36 256.69 70.72C256.943 71.0667 257.07 71.5267 257.07 72.1C257.07 72.7133 256.896 73.2467 256.55 73.7C256.216 74.14 255.723 74.4867 255.07 74.74C254.43 74.98 253.65 75.1 252.73 75.1ZM262.495 75.1C261.509 75.1 260.749 74.8333 260.215 74.3C259.682 73.7667 259.415 73.0133 259.415 72.04V62.18H260.835V71.96C260.835 72.5733 260.989 73.0467 261.295 73.38C261.615 73.7133 262.069 73.88 262.655 73.88C263.282 73.88 263.802 73.7 264.215 73.34L264.715 74.36C264.435 74.6133 264.095 74.8 263.695 74.92C263.309 75.04 262.909 75.1 262.495 75.1ZM257.535 65.68V64.5H264.035V65.68H257.535ZM270.889 75.1C269.796 75.1 268.836 74.8733 268.009 74.42C267.183 73.9533 266.536 73.32 266.069 72.52C265.603 71.7067 265.369 70.78 265.369 69.74C265.369 68.7 265.589 67.78 266.029 66.98C266.483 66.18 267.096 65.5533 267.869 65.1C268.656 64.6333 269.536 64.4 270.509 64.4C271.496 64.4 272.369 64.6267 273.129 65.08C273.903 65.52 274.509 66.1467 274.949 66.96C275.389 67.76 275.609 68.6867 275.609 69.74C275.609 69.8067 275.603 69.88 275.589 69.96C275.589 70.0267 275.589 70.1 275.589 70.18H266.449V69.12H274.829L274.269 69.54C274.269 68.78 274.103 68.1067 273.769 67.52C273.449 66.92 273.009 66.4533 272.449 66.12C271.889 65.7867 271.243 65.62 270.509 65.62C269.789 65.62 269.143 65.7867 268.569 66.12C267.996 66.4533 267.549 66.92 267.229 67.52C266.909 68.12 266.749 68.8067 266.749 69.58V69.8C266.749 70.6 266.923 71.3067 267.269 71.92C267.629 72.52 268.123 72.9933 268.749 73.34C269.389 73.6733 270.116 73.84 270.929 73.84C271.569 73.84 272.163 73.7267 272.709 73.5C273.269 73.2733 273.749 72.9267 274.149 72.46L274.949 73.38C274.483 73.94 273.896 74.3667 273.189 74.66C272.496 74.9533 271.729 75.1 270.889 75.1ZM291.12 64.4C291.973 64.4 292.713 64.5667 293.34 64.9C293.98 65.22 294.473 65.7133 294.82 66.38C295.18 67.0467 295.36 67.8867 295.36 68.9V75H293.94V69.04C293.94 67.9333 293.673 67.1 293.14 66.54C292.62 65.9667 291.88 65.68 290.92 65.68C290.2 65.68 289.573 65.8333 289.04 66.14C288.52 66.4333 288.113 66.8667 287.82 67.44C287.54 68 287.4 68.68 287.4 69.48V75H285.98V69.04C285.98 67.9333 285.713 67.1 285.18 66.54C284.646 65.9667 283.9 65.68 282.94 65.68C282.233 65.68 281.613 65.8333 281.08 66.14C280.546 66.4333 280.133 66.8667 279.84 67.44C279.56 68 279.42 68.68 279.42 69.48V75H278V64.5H279.36V67.34L279.14 66.84C279.46 66.08 279.973 65.4867 280.68 65.06C281.4 64.62 282.246 64.4 283.22 64.4C284.246 64.4 285.12 64.66 285.84 65.18C286.56 65.6867 287.026 66.4533 287.24 67.48L286.68 67.26C286.986 66.4067 287.526 65.72 288.3 65.2C289.086 64.6667 290.026 64.4 291.12 64.4Z" fill="white"/>
<defs>
<clipPath id="clip0_474_246">
<rect width="256" height="43" fill="white" transform="translate(21)"/>
</clipPath>
</defs>
</svg>
