<svg width="20" height="15" viewBox="0 0 20 15" fill="none" xmlns="http://www.w3.org/2000/svg">
<path d="M10.0028 11.4376C11.0857 11.4376 12.0053 11.0586 12.7615 10.3005C13.5178 9.54247 13.8959 8.62198 13.8959 7.53904C13.8959 6.45613 13.5169 5.53654 12.7588 4.78029C12.0008 4.02404 11.0803 3.64591 9.99736 3.64591C8.91444 3.64591 7.99486 4.02494 7.23861 4.78299C6.48236 5.54103 6.10423 6.46152 6.10423 7.54445C6.10423 8.62737 6.48326 9.54696 7.24131 10.3032C7.99935 11.0595 8.91983 11.4376 10.0028 11.4376ZM9.99468 10.1084C9.28021 10.1084 8.67472 9.85836 8.17819 9.35824C7.68166 8.8581 7.4334 8.25081 7.4334 7.53636C7.4334 6.8219 7.68346 6.2164 8.18357 5.71987C8.68371 5.22335 9.291 4.97508 10.0054 4.97508C10.7199 4.97508 11.3254 5.22514 11.8219 5.72526C12.3185 6.22539 12.5667 6.83268 12.5667 7.54713C12.5667 8.2616 12.3167 8.86709 11.8166 9.36362C11.3164 9.86015 10.7091 10.1084 9.99468 10.1084ZM10.0001 14.4167C7.89173 14.4167 5.97055 13.8438 4.23652 12.698C2.5025 11.5522 1.16298 10.0391 0.217971 8.15873C0.169923 8.08352 0.13444 7.99111 0.111523 7.88151C0.0886068 7.77191 0.0771484 7.65865 0.0771484 7.54175C0.0771484 7.42484 0.0886068 7.31159 0.111523 7.20199C0.13444 7.09238 0.169923 6.99998 0.217971 6.92476C1.16298 5.04442 2.5025 3.53133 4.23652 2.3855C5.97055 1.23966 7.89173 0.666748 10.0001 0.666748C12.1084 0.666748 14.0296 1.23966 15.7636 2.3855C17.4976 3.53133 18.8372 5.04442 19.7822 6.92476C19.8302 6.99998 19.8657 7.09238 19.8886 7.20199C19.9115 7.31159 19.923 7.42484 19.923 7.54175C19.923 7.65865 19.9115 7.77191 19.8886 7.88151C19.8657 7.99111 19.8302 8.08352 19.7822 8.15873C18.8372 10.0391 17.4976 11.5522 15.7636 12.698C14.0296 13.8438 12.1084 14.4167 10.0001 14.4167ZM9.99619 13.0417C11.8474 13.0417 13.5483 12.5414 15.099 11.5407C16.6497 10.54 17.8299 9.20703 18.6396 7.54175C17.8299 5.87647 16.651 4.54348 15.1029 3.54279C13.5548 2.5421 11.8551 2.04175 10.0039 2.04175C8.15274 2.04175 6.4518 2.5421 4.90111 3.54279C3.35041 4.54348 2.16256 5.87647 1.33757 7.54175C2.16256 9.20703 3.34912 10.54 4.89723 11.5407C6.44536 12.5414 8.14501 13.0417 9.99619 13.0417Z" fill="#B3B3B3"/>
</svg>
